HIERARCHY
ROOT Hips
{
	OFFSET -3.958830 18.904000 13.208200
	CHANNELS 6 Xposition Yposition Zposition Zrotation Yrotation Xrotation 
	JOINT LHipJoint
	{
		OFFSET 0.000000 0.000000 0.000000
		CHANNELS 3 Zrotation Yrotation Xrotation
		JOINT LeftUpLeg
		{
			OFFSET 1.800000 -1.400000 0.085000
			CHANNELS 3 Zrotation Yrotation Xrotation
			JOINT LeftLeg
			{
				OFFSET 2.215000 -6.000000 0.000000
				CHANNELS 3 Zrotation Yrotation Xrotation
				JOINT LeftFoot
				{
					OFFSET 2.500000 -6.900000 0.000000
					CHANNELS 3 Zrotation Yrotation Xrotation
					JOINT LeftToeBase
					{
						OFFSET 0.200000 -0.500000 1.950000
						CHANNELS 3 Zrotation Yrotation Xrotation
						End Site
						{
							OFFSET 0.000000 0.000000 0.000000
						}
					}
				}
			}
		}
	}
	JOINT RHipJoint
	{
		OFFSET 0.000000 0.000000 0.000000
		CHANNELS 3 Zrotation Yrotation Xrotation
		JOINT RightUpLeg
		{
			OFFSET -1.800000 -1.400000 0.085000
			CHANNELS 3 Zrotation Yrotation Xrotation
			JOINT RightLeg
			{
				OFFSET -2.215000 -6.000000 0.000000
				CHANNELS 3 Zrotation Yrotation Xrotation
				JOINT RightFoot
				{
					OFFSET -2.500000 -6.900000 0.000000
					CHANNELS 3 Zrotation Yrotation Xrotation
					JOINT RightToeBase
					{
						OFFSET -0.200000 -0.500000 1.950000
						CHANNELS 3 Zrotation Yrotation Xrotation
						End Site
						{
							OFFSET 0.000000 0.000000 0.000000
						}
					}
				}
			}
		}
	}
	JOINT LowerBack
	{
		OFFSET 0.000000 0.000000 0.000000
		CHANNELS 3 Zrotation Yrotation Xrotation
		JOINT Spine
		{
			OFFSET -0.087000 1.940000 -0.288900
			CHANNELS 3 Zrotation Yrotation Xrotation
			JOINT Spine1
			{
				OFFSET 0.000000 1.950000 0.060000
				CHANNELS 3 Zrotation Yrotation Xrotation
				JOINT Neck
				{
					OFFSET 0.000000 0.000000 0.000000
					CHANNELS 3 Zrotation Yrotation Xrotation
					JOINT Neck1
					{
						OFFSET 0.000000 1.600000 0.340000
						CHANNELS 3 Zrotation Yrotation Xrotation
						JOINT Head
						{
							OFFSET 0.000000 1.667000 -0.240000
							CHANNELS 3 Zrotation Yrotation Xrotation
							End Site
							{
								OFFSET 0.000000 0.000000 0.000000
							}
						}
					}
				}
				JOINT LeftShoulder
				{
					OFFSET 0.000000 0.000000 0.000000
					CHANNELS 3 Zrotation Yrotation Xrotation
					JOINT LeftArm
					{
						OFFSET 2.700000 1.550000 -0.730000
						CHANNELS 3 Zrotation Yrotation Xrotation
						JOINT LeftForeArm
						{
							OFFSET 5.450000 0.000000 0.000000
							CHANNELS 3 Zrotation Yrotation Xrotation
							JOINT LeftHand
							{
								OFFSET 3.450000 0.000000 0.000000
								CHANNELS 3 Zrotation Yrotation Xrotation
								JOINT LeftHandIndex1
								{
									OFFSET 0.750000 0.000000 0.000000
									CHANNELS 3 Zrotation Yrotation Xrotation
									End Site
									{
										OFFSET 0.000000 0.000000 0.000000
									}
								}
							}
						}
					}
				}
				JOINT RightShoulder
				{
					OFFSET 0.000000 0.000000 0.000000
					CHANNELS 3 Zrotation Yrotation Xrotation
					JOINT RightArm
					{
						OFFSET -2.700000 1.550000 -0.730000
						CHANNELS 3 Zrotation Yrotation Xrotation
						JOINT RightForeArm
						{
							OFFSET -5.450000 0.000000 0.000000
							CHANNELS 3 Zrotation Yrotation Xrotation
							JOINT RightHand
							{
								OFFSET -3.450000 0.000000 0.000000
								CHANNELS 3 Zrotation Yrotation Xrotation
								JOINT RightHandIndex1
								{
									OFFSET -0.750000 0.000000 0.000000
									CHANNELS 3 Zrotation Yrotation Xrotation
									End Site
									{
										OFFSET 0.000000 0.000000 0.000000
									}
								}
							}
						}
					}
				}
			}
		}
	}
}
MOTION
Frames: 8
Frame Time: 0.016667
0.363260 17.371990 -5.725770 -3.850174 2.270758 -11.612744 -15.721317 13.945332 4.007779 7.779189 -7.022541 -30.998336 2.954651 6.977307 47.420045 -0.340676 8.370929 1.627615 0.065440 -0.236470 -0.118540 17.798974 -9.738169 2.655825 0.581445 5.442150 -25.759909 -18.663993 0.764161 52.772470 -1.424346 -7.413631 1.795169 -0.196410 0.677560 0.578520 -2.137265 -5.189180 -8.201880 -4.138167 2.832749 48.910204 5.995439 3.387518 12.638838 0.066047 -0.878535 -13.075792 -5.970977 0.272849 42.179615 4.593270 1.308110 -33.506540 1.814362 -21.352847 5.215309 -10.594357 -17.422666 -9.521823 108.978824 -62.217033 -92.587445 -3.918435 1.773337 1.200060 0.100690 0.295590 0.256850 -1.991375 24.837189 10.350750 23.077948 3.615518 -20.955978 -9.846534 71.808343 -9.798904 1.222833 -0.898189 -0.410130 0.621470 0.455190 -0.082160 
0.387820 17.249540 -5.770470 -4.823717 -2.045704 -10.313873 -15.653305 13.395953 4.191332 10.219430 -6.801614 -34.081162 1.489837 8.591735 50.572182 -0.158149 9.208328 1.352584 -0.062730 -0.441080 -0.151860 17.968080 -9.373029 3.098035 5.435044 7.124061 -26.947809 -23.148106 3.419939 52.337430 -1.516192 -7.627729 1.763357 -0.342100 0.661430 0.565650 -2.420675 -4.672782 -8.580024 -0.117536 0.741035 50.024065 3.127506 3.432472 8.777678 1.420651 -1.944837 -13.493849 -8.449966 2.054466 45.337078 2.264530 1.582100 -33.462290 -0.960896 -20.350974 5.234478 -5.272141 -12.644828 -8.988301 101.620379 -67.208817 -83.587119 -3.761234 0.857573 1.243370 0.067760 0.273820 0.205510 -1.714224 24.477773 9.855123 15.867042 3.157472 -18.747362 6.312181 80.863903 0.972939 1.382515 -1.079867 -0.439050 0.582910 0.506870 -0.107630 
0.422070 17.137170 -5.792200 -5.228433 -8.990941 -7.205554 -15.672275 12.643324 4.589222 15.192889 -5.583837 -37.685636 -4.127934 13.045130 52.325850 0.111414 10.470503 0.917673 -0.139290 -0.578710 -0.145830 18.111892 -8.720292 3.534895 8.967316 9.514328 -29.172859 -26.899423 5.755362 50.089235 -1.560945 -7.551807 1.790827 -0.461410 0.600380 0.567190 -2.584567 -4.329717 -9.065806 2.340633 -0.112861 48.448096 0.789266 3.902339 5.018648 2.423315 -2.694452 -13.382532 -11.015770 4.244632 49.949106 -1.144020 2.188590 -34.851240 -3.367659 -19.346567 3.023910 -3.331062 -6.376923 -12.141358 76.266678 -79.612486 -60.487655 -3.090121 0.008997 1.298380 0.002930 0.298920 0.162510 -1.395775 24.126039 10.551073 9.360367 5.807932 -13.473496 44.306183 89.356684 35.412356 1.745525 -1.203332 -0.435340 0.535990 0.528860 -0.128290 
0.452700 17.061870 -5.782100 -5.806021 -12.991361 -4.047821 -15.685286 11.760829 5.208490 20.655946 -4.572812 -40.393126 -10.915659 17.636163 52.110352 0.409247 11.635804 0.547506 -0.186790 -0.657850 -0.151390 18.237659 -8.370575 3.650299 9.918432 10.605688 -31.329413 -27.814829 6.015369 48.027852 -1.506426 -7.258578 1.895088 -0.548350 0.555890 0.565560 -2.823742 -3.561261 -9.461506 5.709053 -1.510493 46.134175 -1.583526 3.855554 2.207883 3.677634 -2.444267 -13.451951 -10.676269 5.196495 54.035277 -3.899240 2.827170 -34.511570 -5.024987 -19.952554 5.252075 -2.097929 -1.053198 -10.468722 38.639003 -79.317964 -31.080585 -3.384246 2.216004 1.316450 -0.031860 0.312730 0.142310 -1.876970 24.684592 7.153028 7.908850 5.866815 -17.459096 123.569537 78.031141 110.180676 1.733871 1.400669 -0.413410 0.490300 0.533320 -0.134060 
0.485230 17.027290 -5.770740 -5.743201 -15.245418 -1.835506 -15.683115 11.125658 5.813251 25.182184 -3.777757 -41.845983 -17.362856 21.258357 50.269594 0.625775 12.453074 0.309377 -0.243200 -0.740900 -0.142520 18.333124 -8.220754 3.519170 8.173854 10.740378 -33.389921 -26.101217 4.893572 47.309429 -1.357014 -6.889415 1.992000 -0.590580 0.536800 0.533480 -3.061387 -3.017835 -9.674363 8.732458 -3.041130 43.849589 -3.724900 3.218418 3.118186 4.193145 -1.831116 -14.320462 -8.982485 5.015205 54.152177 -6.844340 3.278410 -33.087080 -5.641661 -19.073088 6.017090 -2.671067 1.831172 -9.037558 19.796152 -74.340415 -15.065928 -3.453114 2.568019 1.298610 -0.037610 0.283940 0.102140 -2.553108 22.978395 8.341534 7.117136 6.907346 -13.871578 167.553853 72.837517 156.664873 1.645219 -0.788466 -0.433830 0.477330 0.552390 -0.152830 
0.506530 17.008200 -5.771980 -5.381030 -16.580705 0.141116 -15.656455 10.456638 6.318604 29.167942 -2.850656 -43.064553 -22.937991 24.192107 48.305475 0.758113 13.130593 0.135702 -0.262640 -0.787720 -0.145410 18.456701 -8.118697 3.437807 5.378103 11.008478 -36.440340 -23.378994 3.314754 48.125742 -1.228855 -6.765611 2.005023 -0.571710 0.602030 0.537300 -3.393817 -2.293031 -9.828057 11.826112 -4.555633 41.136857 -6.160006 2.203219 5.111501 4.425267 -1.540467 -14.347603 -7.259794 4.594196 50.590807 -7.974140 3.271210 -29.127110 -5.041406 -17.779256 6.474217 -5.598594 3.765165 -8.457852 10.301283 -68.802467 -7.756446 -3.537641 2.661773 1.254920 0.034230 0.216010 0.098950 -3.893936 20.796466 8.762638 10.296654 8.495672 -11.803657 -177.771861 65.441975 172.324293 1.645709 -1.084776 -0.473810 0.490450 0.579510 -0.162670 
0.524350 17.024310 -5.769330 -4.876939 -17.391107 1.708914 -15.574693 9.958478 6.559867 32.078978 -2.006710 -42.995331 -26.385762 25.729077 46.327746 0.841940 13.381745 0.089842 -0.271300 -0.781680 -0.158810 18.592706 -8.182820 3.389287 2.001952 10.922423 -39.371497 -20.094426 1.337622 48.539718 -1.107844 -6.588199 2.043379 -0.551710 0.652850 0.558000 -3.801013 -1.452751 -9.850545 14.985883 -6.200592 38.533736 -9.084781 0.944881 7.647778 4.684057 -0.889135 -14.261025 -4.797839 3.895180 46.903401 -9.617960 3.478990 -27.429700 -4.090874 -16.486988 6.755369 -9.632344 5.139760 -8.637282 6.265960 -63.092883 -4.871499 -3.596117 2.677674 1.188360 0.100380 0.182610 0.107730 -5.592760 18.233422 9.403536 17.863094 10.812176 -9.607361 -170.102723 59.179973 -178.899609 1.669279 -1.211241 -0.469330 0.497300 0.588380 -0.144220 
0.545620 17.054840 -5.763040 -4.411050 -17.945952 2.949552 -15.476519 9.631484 6.602615 34.058997 -1.377782 -42.216391 -27.581188 26.169061 45.030653 0.839576 13.386611 0.102885 -0.243950 -0.678840 -0.191050 18.714774 -8.336179 3.345229 -2.094783 10.458695 -41.802800 -15.280965 -1.422982 48.656866 -0.992564 -6.417062 2.093254 -0.471800 0.703780 0.564380 -4.189531 -0.651201 -9.762329 18.293601 -7.706831 36.007452 -11.680196 -0.172486 10.297879 5.018982 -0.299190 -13.608148 -2.551011 3.375566 42.674618 -11.772810 3.717200 -26.800690 -4.094049 -14.705625 6.444543 -13.760048 4.983210 -8.637577 4.933566 -56.551930 -3.671653 -3.670868 2.634539 1.101180 0.177000 0.166010 0.151390 -6.344445 15.300207 9.612146 26.685389 13.113724 -7.072645 -167.382548 54.768480 -176.184963 1.678136 -1.284150 -0.457530 0.535000 0.568590 -0.103140 
